<?xml version="1.0" standalone="no"?>
<!DOCTYPE svg PUBLIC "-//W3C//DTD SVG 20010904//EN"
 "http://www.w3.org/TR/2001/REC-SVG-20010904/DTD/svg10.dtd">
<svg version="1.0" xmlns="http://www.w3.org/2000/svg"
 width="500.000000pt" height="500.000000pt" viewBox="0 0 500.000000 500.000000"
 preserveAspectRatio="xMidYMid meet">
<metadata>
Created by potrace 1.14, written by Peter Selinger 2001-2017
</metadata>
<g transform="translate(0.000000,500.000000) scale(0.100000,-0.100000)"
fill="#000000" stroke="none">
<path d="M2430 4242 c-356 -43 -616 -215 -700 -464 -19 -56 -21 -79 -16 -150
12 -159 6 -405 -11 -463 -3 -10 -34 -60 -68 -110 -63 -93 -91 -154 -81 -180 3
-8 33 -29 68 -46 78 -39 90 -54 83 -99 -11 -67 -8 -84 21 -106 22 -18 26 -27
21 -53 -6 -28 -2 -34 33 -57 l40 -26 -4 -97 c-2 -53 0 -106 5 -118 20 -53 91
-69 194 -45 33 7 67 15 75 17 8 2 26 6 40 10 21 5 26 2 27 -13 1 -11 15 -53
31 -94 16 -40 30 -86 31 -103 0 -16 3 -41 6 -55 3 -14 7 -38 10 -55 3 -16 -1
-63 -9 -103 -21 -110 -11 -222 21 -222 9 0 62 46 118 103 138 140 287 243 462
320 78 34 216 83 263 92 70 15 119 24 160 30 99 15 88 41 -40 96 -55 23 -109
50 -120 61 -11 10 -24 16 -29 13 -12 -7 2 42 22 81 9 16 35 48 57 72 53 58
103 128 106 150 8 73 6 92 -18 139 -15 29 -14 33 1 50 78 87 157 232 191 353
27 97 35 271 15 360 -21 97 -63 210 -77 210 -5 0 -8 6 -8 13 0 29 -89 148
-175 232 -177 175 -362 251 -625 258 -52 1 -106 1 -120 -1z m765 -1493 c-4 -5
2 -9 12 -10 10 0 13 -3 6 -5 -7 -3 -9 -12 -6 -20 3 -7 10 -11 17 -7 6 4 5 -1
-3 -11 -10 -12 -11 -20 -3 -28 8 -8 6 -17 -5 -34 -8 -13 -11 -24 -7 -24 5 0 1
-7 -10 -15 -10 -8 -15 -19 -10 -26 5 -8 3 -10 -5 -5 -8 5 -14 0 -18 -13 -3
-11 -9 -19 -13 -16 -4 3 -10 -4 -13 -15 -3 -11 -16 -24 -29 -29 -12 -6 -19
-10 -15 -10 15 -1 -21 -31 -37 -31 -24 0 -1 52 39 88 18 17 36 40 40 51 3 12
11 21 16 21 6 0 8 4 5 8 -2 4 -1 14 3 21 8 13 1 56 -15 95 -5 13 -4 17 4 12 6
-3 17 0 24 8 14 15 32 11 23 -5z m-68 -79 c8 -22 8 -29 0 -27 -7 1 -13 -10
-15 -25 -2 -17 -9 -28 -18 -28 -8 0 -12 -4 -9 -10 3 -6 -4 -10 -17 -10 -13 0
-18 4 -13 8 6 4 11 13 13 20 1 6 3 18 5 24 1 7 8 18 16 24 11 8 11 13 2 18 -9
6 -9 11 0 22 17 20 23 18 36 -16z"/>
<path d="M2328 1462 c-22 -4 -22 -12 -4 -54 34 -79 46 -108 77 -188 41 -107
63 -140 94 -140 42 0 44 4 171 323 l23 57 -38 0 -38 0 -58 -147 -58 -146 -29
74 c-89 224 -94 231 -140 221z"/>
<path d="M1651 1451 c-13 -4 -34 -19 -45 -34 -19 -25 -21 -42 -21 -150 0 -177
10 -187 191 -187 55 0 94 4 95 10 7 58 11 55 -96 58 -54 1 -105 8 -112 14 -16
13 -18 180 -3 209 10 17 22 19 109 19 54 0 100 2 103 5 2 3 3 18 0 35 l-4 29
-97 -1 c-53 -1 -107 -4 -120 -7z"/>
<path d="M1993 1449 c-52 -15 -65 -46 -68 -155 -3 -117 6 -162 40 -191 23 -20
37 -23 121 -23 154 0 174 22 174 184 0 108 -12 156 -42 175 -27 17 -179 24
-225 10z m187 -74 c18 -21 15 -205 -2 -217 -21 -13 -164 -10 -176 5 -17 20
-13 194 4 212 22 21 157 21 174 0z"/>
<path d="M2737 1439 c-12 -46 -4 -49 143 -49 131 0 138 1 143 21 12 46 4 49
-143 49 -131 0 -138 -1 -143 -21z"/>
<path d="M3076 1451 c-2 -3 -3 -17 -2 -31 1 -25 1 -25 111 -28 89 -2 112 -6
123 -19 14 -20 15 -33 2 -53 -7 -12 -32 -15 -113 -16 -57 0 -108 -4 -114 -7
-6 -4 -10 -49 -9 -109 l1 -103 33 -3 c25 -3 32 1 33 15 0 10 1 45 2 78 l2 60
40 1 c22 0 46 -4 52 -9 7 -5 30 -40 50 -78 36 -66 39 -69 75 -69 44 0 43 3 -9
90 -18 30 -33 58 -33 61 0 3 11 11 25 17 28 13 43 58 38 116 -4 59 -25 84 -75
90 -53 7 -228 4 -232 -3z"/>
<path d="M2760 1298 c-21 -8 -24 -24 -21 -96 2 -56 25 -100 58 -113 14 -5 71
-8 126 -7 l101 3 2 32 c1 18 -2 35 -7 39 -5 3 -50 6 -99 6 -98 1 -107 4 -110
33 -5 41 -3 42 101 40 94 -1 102 0 109 19 17 44 0 51 -125 51 -63 0 -124 -3
-135 -7z"/>
<path d="M1603 815 c-46 -20 -56 -47 -58 -160 -3 -186 13 -205 181 -205 107 0
114 1 126 23 16 29 19 194 4 200 -16 6 -147 7 -167 1 -10 -3 -15 -14 -14 -32
1 -26 3 -27 63 -30 60 -3 62 -4 63 -30 2 -31 -1 -55 -7 -61 -2 -2 -38 -3 -81
-3 -59 1 -80 5 -89 17 -15 20 -17 165 -4 199 8 23 14 25 72 25 173 -1 178 0
178 20 0 48 -6 50 -123 50 -72 0 -123 -5 -144 -14z"/>
<path d="M1919 820 c-1 -5 -1 -17 -1 -25 0 -8 0 -19 1 -25 1 -6 55 -10 141
-10 86 0 140 4 141 10 1 6 2 17 2 25 0 8 -1 20 -2 25 -1 6 -55 10 -141 10 -86
0 -140 -4 -141 -10z"/>
<path d="M2275 816 c-18 -13 -19 -29 -20 -177 0 -90 1 -170 3 -176 6 -20 59
-16 64 5 2 9 3 74 3 145 -1 70 0 127 1 127 1 0 34 -57 73 -127 91 -163 91
-163 133 -163 56 0 61 13 60 173 0 221 2 207 -27 207 -15 0 -28 -7 -32 -17 -4
-9 -7 -75 -7 -145 0 -70 -1 -128 -2 -128 -2 0 -37 62 -80 138 -43 75 -82 140
-88 144 -18 12 -61 9 -81 -6z"/>
<path d="M2647 824 c-4 -4 -7 -90 -7 -191 l1 -183 35 0 34 0 -2 188 -3 187
-25 3 c-14 2 -29 0 -33 -4z"/>
<path d="M2764 816 c-3 -8 -4 -81 -2 -162 l3 -146 33 -29 c31 -27 37 -29 123
-29 105 0 141 14 158 61 14 41 15 306 0 314 -5 4 -21 4 -33 1 -23 -6 -24 -8
-24 -134 0 -165 -2 -172 -55 -173 -71 -2 -111 2 -124 13 -9 7 -13 55 -15 152
l-3 141 -28 3 c-17 2 -29 -2 -33 -12z"/>
<path d="M3169 811 c-19 -15 -24 -30 -27 -87 -3 -57 -1 -73 15 -93 18 -22 27
-24 104 -24 46 1 89 -3 95 -8 12 -9 12 -65 0 -76 -3 -3 -53 -6 -111 -6 l-105
0 0 -33 0 -34 123 0 c67 0 127 4 133 8 38 25 48 152 15 193 -17 21 -27 23
-107 24 l-89 1 -3 42 -3 43 43 -2 c24 -1 71 -1 106 0 l63 1 -3 33 -3 32 -111
3 c-97 2 -115 0 -135 -17z"/>
<path d="M1939 668 c-20 -8 -22 -15 -21 -88 1 -108 35 -132 184 -128 l102 3 1
38 c2 42 12 38 -120 39 -83 1 -91 3 -98 30 -11 40 -1 45 100 44 106 -1 128 8
114 47 -8 21 -14 22 -125 22 -65 0 -126 -3 -137 -7z"/>
</g>
</svg>
